<svg width="67" height="61" viewBox="0 0 67 61" fill="none" xmlns="http://www.w3.org/2000/svg">
<path fill-rule="evenodd" clip-rule="evenodd" d="M33.5 0.513672C15.3684 0.513672 0.5 15.2122 0.5 33.3439C0.5 43.4735 5.14061 52.5316 12.3983 58.5538C20.1135 60.1985 32.1028 61.4381 39.9127 55.8954C46.1911 51.4395 55.6529 48.7541 63.4138 47.1926C65.3926 42.9847 66.5 38.2921 66.5 33.3439C66.5 15.2122 51.6316 0.513672 33.5 0.513672Z" fill="#F6E6E4"/>
<mask id="mask0_36_655" style="mask-type:luminance" maskUnits="userSpaceOnUse" x="0" y="0" width="67" height="60">
<path fill-rule="evenodd" clip-rule="evenodd" d="M33.5 0.513672C15.3684 0.513672 0.5 15.2122 0.5 33.3439C0.5 43.4735 5.14061 52.5316 12.3983 58.5538C20.1135 60.1985 32.1028 61.4381 39.9127 55.8954C46.1911 51.4395 55.6529 48.7541 63.4138 47.1926C65.3926 42.9847 66.5 38.2921 66.5 33.3439C66.5 15.2122 51.6316 0.513672 33.5 0.513672Z" fill="white"/>
</mask>
<g mask="url(#mask0_36_655)">
</g>
<path d="M33.2956 13.5874C33.0774 13.3905 32.7939 13.2815 32.5 13.2815C32.2061 13.2815 31.9226 13.3905 31.7044 13.5874C31.2056 14.0387 19.4375 24.6906 19.4375 35.8531C19.4375 39.3175 20.8137 42.64 23.2634 45.0896C25.7131 47.5393 29.0356 48.9156 32.5 48.9156C35.9644 48.9156 39.2869 47.5393 41.7366 45.0896C44.1863 42.64 45.5625 39.3175 45.5625 35.8531C45.5625 24.6906 33.7944 14.0387 33.2956 13.5874ZM32.5 46.5406C29.6655 46.5406 26.9471 45.4146 24.9428 43.4103C22.9385 41.406 21.8125 38.6876 21.8125 35.8531C21.8125 27.3387 29.8994 18.6818 32.5 16.1168C35.1006 18.6818 43.1875 27.3387 43.1875 35.8531C43.1875 38.6876 42.0615 41.406 40.0572 43.4103C38.0529 45.4146 35.3345 46.5406 32.5 46.5406Z" fill="url(#paint0_linear_36_655)"/>
<path d="M35.5163 41.8974C34.5743 42.3464 33.5434 42.5777 32.5 42.5743C32.1851 42.5743 31.883 42.6994 31.6603 42.9221C31.4376 43.1448 31.3125 43.4469 31.3125 43.7618C31.3125 44.0768 31.4376 44.3788 31.6603 44.6015C31.883 44.8242 32.1851 44.9493 32.5 44.9493C33.8905 44.9469 35.2639 44.643 36.5256 44.0587C36.8122 43.9248 37.0339 43.6826 37.1419 43.3853C37.2499 43.088 37.2354 42.76 37.1016 42.4734C36.9677 42.1868 36.7255 41.9651 36.4282 41.8571C36.1309 41.7491 35.8029 41.7636 35.5163 41.8974Z" fill="url(#paint1_linear_36_655)"/>
<path d="M40.8126 34.2617C40.4976 34.2617 40.1956 34.3868 39.9729 34.6095C39.7502 34.8322 39.6251 35.1343 39.6251 35.4492C39.6249 37.2574 38.9372 38.998 37.7013 40.318C37.5444 40.4871 37.4402 40.6984 37.4014 40.9258C37.3626 41.1533 37.3909 41.3871 37.4829 41.5987C37.5749 41.8103 37.7265 41.9906 37.9192 42.1174C38.112 42.2443 38.3375 42.3122 38.5682 42.313C38.731 42.3124 38.892 42.2784 39.0411 42.2131C39.1903 42.1477 39.3244 42.0524 39.4351 41.933C41.081 40.175 41.9978 37.8575 42.0001 35.4492C42.0001 35.1343 41.875 34.8322 41.6523 34.6095C41.4296 34.3868 41.1275 34.2617 40.8126 34.2617Z" fill="url(#paint2_linear_36_655)"/>
<defs>
<linearGradient id="paint0_linear_36_655" x1="12.2887" y1="13.9674" x2="50.5856" y2="50.7799" gradientUnits="userSpaceOnUse">
<stop stop-color="#EA5455"/>
<stop offset="1" stop-color="#FEB692"/>
</linearGradient>
<linearGradient id="paint1_linear_36_655" x1="8.15625" y1="18.2781" x2="46.4531" y2="55.0906" gradientUnits="userSpaceOnUse">
<stop stop-color="#EA5455"/>
<stop offset="1" stop-color="#FEB692"/>
</linearGradient>
<linearGradient id="paint2_linear_36_655" x1="13.2982" y1="12.9223" x2="51.5951" y2="49.7348" gradientUnits="userSpaceOnUse">
<stop stop-color="#EA5455"/>
<stop offset="1" stop-color="#FEB692"/>
</linearGradient>
</defs>
</svg>
