<svg width="25" height="25" viewBox="0 0 25 25" fill="none" xmlns="http://www.w3.org/2000/svg">
<path fill-rule="evenodd" clip-rule="evenodd" d="M12.5572 2.26367C14.7479 2.26366 16.4686 2.26365 17.812 2.44426C19.1886 2.62935 20.2809 3.01638 21.1391 3.87458C21.9973 4.73278 22.3843 5.82504 22.5694 7.20169C22.75 8.54511 22.75 10.2658 22.75 12.4565V12.5709C22.75 14.7616 22.75 16.4823 22.5694 17.8257C22.3843 19.2023 21.9973 20.2946 21.1391 21.1528C20.2809 22.011 19.1886 22.398 17.812 22.5831C16.4686 22.7637 14.7479 22.7637 12.5572 22.7637H12.4428C10.2521 22.7637 8.53144 22.7637 7.18802 22.5831C5.81137 22.398 4.71911 22.011 3.86091 21.1528C3.00272 20.2946 2.61568 19.2023 2.43059 17.8257C2.24998 16.4823 2.24999 14.7616 2.25 12.5709V12.4565C2.24999 10.2658 2.24998 8.54511 2.43059 7.20169C2.61568 5.82504 3.00272 4.73278 3.86091 3.87458C4.71911 3.01638 5.81137 2.62935 7.18802 2.44426C8.53143 2.26365 10.2521 2.26366 12.4428 2.26367H12.5572ZM17 12.5137C17 14.999 14.9853 17.0137 12.5 17.0137C10.0147 17.0137 8 14.999 8 12.5137C8 10.0284 10.0147 8.01367 12.5 8.01367C14.9853 8.01367 17 10.0284 17 12.5137ZM18.0123 8.01367C18.5621 8.01367 19.0078 7.56596 19.0078 7.01367C19.0078 6.46139 18.5621 6.01367 18.0123 6.01367H18.0033C17.4535 6.01367 17.0078 6.46139 17.0078 7.01367C17.0078 7.56595 17.4535 8.01367 18.0033 8.01367H18.0123Z" fill="#E48673"/>
</svg>
