<svg width="249" height="135" viewBox="0 0 249 135" fill="none" xmlns="http://www.w3.org/2000/svg">
<g id="Frame 1618873379">
<g id="Group">
<g id="Group_2">
<g id="Group_3">
<g id="Group_4">
<path id="Vector" d="M117.585 80.5237C117.06 79.7214 116.9 79.7214 116.694 79.7214C116.397 79.7214 116.146 79.9645 116.146 80.2562C116.146 80.5723 116.374 80.7425 116.694 80.7425C117.814 80.7425 118.637 81.6664 118.637 82.6875C118.66 83.8788 117.768 84.7784 116.625 84.7784C116.146 84.7784 115.437 84.7298 114.614 83.3197L115.757 82.5416C116.191 83.2467 116.443 83.2953 116.625 83.2953C116.877 83.2953 117.174 83.1008 117.151 82.8091C117.151 82.5416 116.9 82.2256 116.625 82.2256C115.323 82.2256 114.637 81.3746 114.637 80.2319C114.637 79.1136 115.528 78.1654 116.625 78.1654C117.197 78.1654 117.882 78.214 118.705 79.6728L117.585 80.5237Z" fill="#E48673"/>
<path id="Vector_2" d="M133.309 84.6812V78.2383C133.309 78.2383 136.418 78.2383 137.172 78.2383V79.8186C136.532 79.8186 135.435 79.8186 134.795 79.8186V80.6939C135.572 80.6939 136.6 80.6939 137.172 80.6939V82.2499C136.532 82.2499 135.572 82.2499 134.795 82.2499V83.1251C135.526 83.1251 136.6 83.1251 137.172 83.1251V84.7055C136.395 84.6812 133.309 84.6812 133.309 84.6812Z" fill="#E48673"/>
<path id="Vector_3" d="M154.747 80.5237C154.221 79.7214 154.061 79.7214 153.856 79.7214C153.559 79.7214 153.307 79.9645 153.307 80.2562C153.307 80.5723 153.536 80.7425 153.856 80.7425C154.976 80.7425 155.798 81.6664 155.821 82.6875C155.844 83.8788 154.953 84.7784 153.81 84.7784C153.33 84.7784 152.622 84.7298 151.799 83.3197L152.942 82.5416C153.376 83.2467 153.604 83.2953 153.81 83.2953C154.061 83.2953 154.359 83.1008 154.336 82.8091C154.336 82.5416 154.084 82.2256 153.81 82.2256C152.507 82.2256 151.822 81.3746 151.822 80.2319C151.822 79.1136 152.713 78.1654 153.81 78.1654C154.381 78.1654 155.067 78.214 155.89 79.6728L154.747 80.5237Z" fill="#E48673"/>
<path id="Vector_4" d="M173.351 80.5237C172.825 79.7214 172.665 79.7214 172.46 79.7214C172.162 79.7214 171.911 79.9645 171.911 80.2562C171.911 80.5723 172.14 80.7425 172.46 80.7425C173.579 80.7425 174.402 81.6664 174.425 82.6875C174.448 83.8788 173.557 84.7784 172.414 84.7784C171.934 84.7784 171.225 84.7298 170.403 83.3197L171.545 82.5416C171.98 83.2467 172.208 83.2953 172.414 83.2953C172.665 83.2953 172.962 83.1008 172.939 82.8091C172.939 82.5416 172.688 82.2256 172.414 82.2256C171.111 82.2256 170.425 81.3746 170.425 80.2319C170.425 79.1136 171.317 78.1654 172.414 78.1654C172.985 78.1654 173.671 78.214 174.494 79.6728L173.351 80.5237Z" fill="#E48673"/>
<path id="Vector_5" d="M190.286 84.7055C190.286 83.9275 190.286 79.0649 190.286 78.2626H191.772C191.772 79.0649 191.772 83.9275 191.772 84.7055H190.286Z" fill="#E48673"/>
<path id="Vector_6" d="M209.69 84.8759C207.907 84.8759 206.445 83.3199 206.445 81.4721C206.445 79.6487 207.93 78.117 209.69 78.117C211.45 78.117 212.89 79.673 212.89 81.4721C212.867 83.3199 211.45 84.8759 209.69 84.8759ZM209.69 79.7459C208.73 79.7459 207.999 80.5482 207.999 81.4964C207.999 82.4689 208.73 83.2469 209.69 83.2469C210.604 83.2469 211.313 82.4689 211.313 81.4964C211.313 80.5482 210.581 79.7459 209.69 79.7459Z" fill="#E48673"/>
<path id="Vector_7" d="M226.74 81.1558C226.74 81.2774 226.74 81.4476 226.74 81.5935C226.74 82.6875 226.74 84.2192 226.74 84.7055H225.254C225.254 83.9761 225.254 77.9222 225.254 77.9222L229.688 81.788C229.688 81.6907 229.665 81.5691 229.665 81.4719C229.665 80.2806 229.665 78.7489 229.665 78.2869H231.151C231.151 79.0163 231.151 85.0702 231.151 85.0702L226.74 81.1558Z" fill="#E48673"/>
<path id="Vector_8" d="M247.697 80.5237C247.172 79.7214 247.012 79.7214 246.806 79.7214C246.509 79.7214 246.257 79.9645 246.257 80.2562C246.257 80.5723 246.486 80.7425 246.806 80.7425C247.926 80.7425 248.749 81.6664 248.771 82.6875C248.794 83.8788 247.903 84.7784 246.76 84.7784C246.28 84.7784 245.572 84.7298 244.749 83.3197L245.892 82.5416C246.326 83.2467 246.555 83.2953 246.76 83.2953C247.012 83.2953 247.309 83.1008 247.286 82.8091C247.286 82.5416 247.034 82.2256 246.76 82.2256C245.458 82.2256 244.772 81.3746 244.772 80.2319C244.772 79.1136 245.663 78.1654 246.76 78.1654C247.332 78.1654 248.017 78.214 248.84 79.6728L247.697 80.5237Z" fill="#E48673"/>
</g>
<path id="Vector_9" d="M163.135 0V33.4543H172.597V35.9099H156.461V0H163.135Z" fill="black"/>
<path id="Vector_10" d="M181.144 7.58556H175.271L170.083 26.2577C175.248 26.2577 180.847 26.2577 186.035 26.2577L181.144 7.58556ZM173.191 24.2884L176.116 13.4449L178.836 24.2884H173.191Z" fill="black"/>
<path id="Vector_11" d="M147.593 7.58556H141.72L136.532 26.2577C141.697 26.2577 147.296 26.2577 152.484 26.2577L147.593 7.58556ZM139.663 24.2884L142.588 13.4449L145.308 24.2884H139.663Z" fill="black"/>
<path id="Vector_12" d="M114.591 36.2259V11.7673H124.83C130.087 11.7673 132.738 13.761 132.738 17.7726C132.738 20.6172 131.138 22.4406 127.961 23.2429C131.801 24.0453 133.698 26.2091 133.698 29.7344C133.698 34.0621 131.115 36.2502 125.973 36.2502H114.591V36.2259ZM121.288 22.4163H123.345C125.242 22.4163 126.202 20.9332 126.202 17.9428C126.202 15.1711 125.196 13.8096 123.185 13.8096H121.288V22.4163ZM121.288 34.208H123.185C125.676 34.208 126.933 32.7006 126.933 29.6615C126.933 26.1848 125.653 24.4343 123.07 24.4343H121.288V34.208Z" fill="black"/>
<path id="Vector_13" d="M207.976 11.7673V36.2259H202.879L193.28 20.7387V36.2259H191.041V11.7673H195.269L205.759 28.4945V11.7673H207.976Z" fill="black"/>
<path id="Vector_14" d="M227.242 26.4036L230.099 27.1816C230.145 27.8137 230.168 28.3486 230.168 28.7862C230.168 31.1689 229.368 33.0653 227.745 34.4997C226.123 35.9342 223.951 36.6392 221.232 36.6392C214.421 36.6392 210.993 32.5547 210.993 24.3856C210.993 19.8878 211.473 18.0157 213.987 14.9523C215.975 12.5454 218.558 11.3297 221.757 11.3297C226.74 11.3297 229.231 13.8826 229.231 18.9639L226.374 20.374C226.42 19.6447 226.42 19.1098 226.42 18.6965C226.42 15.0739 225.071 13.2747 222.351 13.2747C219.472 13.2747 218.032 17.1161 218.032 24.7746C218.032 31.3634 219.632 34.6456 222.854 34.6456C224.18 34.6456 225.277 34.0864 226.168 32.968C227.06 31.8496 227.494 30.4395 227.494 28.7619C227.448 28.2514 227.38 27.4734 227.242 26.4036Z" fill="black"/>
<path id="Vector_15" d="M247.377 11.7673V14.2229H239.127V21.6383H246.052V24.0939H239.127V33.7947H248.771V36.2502H232.453V11.7673H247.377Z" fill="black"/>
<path id="Vector_16" d="M122.728 50.1085V51.4457H118.202V55.8706H122.042V57.2078H118.202V63.3832H114.591V50.1328H122.728V50.1085Z" fill="black"/>
<path id="Vector_17" d="M129.036 49.8897C132.669 49.8897 134.475 52.1751 134.475 56.7459C134.475 61.3166 132.624 63.602 128.944 63.602C125.242 63.602 123.413 61.268 123.413 56.6C123.413 52.1021 125.287 49.8897 129.036 49.8897ZM128.944 50.9351C128.259 50.9351 127.801 51.3241 127.573 52.1264C127.344 52.9288 127.207 54.4605 127.207 56.7216C127.207 58.9826 127.321 60.5143 127.573 61.3167C127.801 62.119 128.281 62.508 128.944 62.508C129.607 62.508 130.087 62.119 130.338 61.3167C130.59 60.5143 130.704 58.9826 130.704 56.7216C130.704 54.4605 130.59 52.9288 130.338 52.1264C130.087 51.3484 129.63 50.9351 128.944 50.9351Z" fill="black"/>
<path id="Vector_18" d="M136.075 63.3589V50.1085H141.423C142.817 50.1085 143.937 50.4245 144.76 51.0567C145.605 51.6888 146.017 52.5154 146.017 53.5609C146.017 55.1655 145.125 56.211 143.343 56.6972C144.257 57.0619 144.851 57.4509 145.125 57.8885C145.399 58.3262 145.582 59.1528 145.674 60.4171C145.788 61.9001 146.017 62.897 146.382 63.3589H142.451C142.2 62.7511 142.085 61.9731 142.085 61.0492L142.063 60.2712L142.04 59.2744C142.04 57.7427 141.468 56.989 140.303 56.989H139.686V63.3589H136.075ZM139.709 55.8949H140.44C141.811 55.8949 142.497 55.1412 142.497 53.6095C142.497 52.0778 141.811 51.3241 140.44 51.3241H139.709V55.8949Z" fill="black"/>
<path id="Vector_19" d="M157.741 54.193V63.4075H152.69V44.9056H157.741V52.3453H161.855V44.9056H166.906V63.4075H161.855V54.193H157.741Z" fill="black"/>
<path id="Vector_20" d="M181.144 44.9056V46.7533H174.905V52.3453H180.139V54.193H174.905V61.5355H182.196V63.3832H169.854V44.8813L181.144 44.9056Z" fill="black"/>
<path id="Vector_21" d="M192.16 44.9056L197.005 63.4075H191.932L190.903 59.3959H185.669L184.572 63.4075H182.607L187.749 44.9056H192.16ZM186.172 57.5239H190.446L188.389 49.3305L186.172 57.5239Z" fill="black"/>
<path id="Vector_22" d="M202.948 44.9056V61.5598H210.101V63.4075H197.897V44.9056H202.948Z" fill="black"/>
<path id="Vector_23" d="M216.203 44.9056V63.4075H211.153V44.9056H216.203Z" fill="black"/>
<path id="Vector_24" d="M231.95 44.9056V63.4075H228.088L220.82 51.6888V63.4075H219.129V44.9056H222.329L230.259 57.5482V44.9056H231.95Z" fill="black"/>
<path id="Vector_25" d="M241.641 53.415H248.794V63.4075H247.194L246.646 62.1433C245.252 63.213 243.766 63.7236 242.212 63.7236C239.652 63.7236 237.641 62.897 236.224 61.268C234.807 59.6148 234.099 57.3294 234.099 54.3389C234.099 51.4457 234.853 49.0874 236.361 47.2882C237.87 45.4891 239.835 44.5895 242.281 44.5895C245.48 44.5895 247.446 46.34 248.131 49.8167L245.755 50.9594V50.5218L245.709 49.525C245.549 47.3368 244.612 46.2671 242.875 46.2671C241.595 46.2671 240.727 46.8506 240.269 47.9933C239.812 49.136 239.561 51.2998 239.561 54.4605C239.561 57.4023 239.744 59.4203 240.132 60.4657C240.521 61.5355 241.229 62.046 242.281 62.046C243.538 62.046 244.155 61.3166 244.155 59.8336V55.2871H241.641V53.415Z" fill="black"/>
<path id="Vector_26" d="M248.794 7.60988H114.591V8.12146H248.794V7.60988Z" fill="black"/>
<path id="Vector_27" d="M248.794 40.7238H114.591V41.2354H248.794V40.7238Z" fill="black"/>
<path id="Vector_28" d="M248.817 69.3642H114.591V69.8757H248.817V69.3642Z" fill="black"/>
</g>
<path id="Vector_29" d="M249 92.3153H114.774V92.8269H249V92.3153Z" fill="black"/>
</g>
</g>
<g id="Group_5">
<path id="Vector_30" d="M85.1087 73.473C87.8741 81.8852 87.6684 91.3428 84.6059 99.6335C77.0181 120.226 55.0547 129.854 35.9481 121.296C15.9959 112.203 7.56252 86.9666 18.0071 66.6654C18.35 65.9847 18.9213 65.0365 19.287 64.3557C19.9498 63.3346 20.7726 62.0703 21.5039 61.1221C21.7325 60.7574 22.0524 60.4171 22.3038 60.101C23.0809 59.1285 24.0408 58.1074 24.9093 57.2321C25.1835 56.989 26.0292 56.1624 26.3034 55.9192C26.6919 55.5545 27.3776 55.0196 27.7661 54.6793C28.3375 54.1687 29.206 53.6338 29.8002 53.1719C28.886 53.9499 27.8118 54.8738 26.9662 55.7247C26.6919 55.9435 26.3263 56.3812 26.0749 56.6486C25.2064 57.5482 24.3379 58.5693 23.5608 59.5418C23.2866 59.9065 22.6924 60.7331 22.4181 61.0978C21.8696 61.9488 21.1839 62.9213 20.704 63.7965C17.8929 68.5618 16.1102 74.0322 15.4931 79.5998C15.4017 80.3292 15.356 81.4233 15.2874 82.1769C15.2646 83.0279 15.2646 83.9031 15.2417 84.7541C15.2646 85.1917 15.2874 86.2615 15.3103 86.6748C15.5388 89.8841 16.1102 93.0447 17.0701 96.1081C22.5324 113.735 39.6963 124.651 56.8602 121.272C77.6809 117.382 90.5252 95.0627 85.1087 73.473Z" fill="#E48673"/>
<path id="Vector_31" d="M76.7439 48.4066C70.3217 43.6413 62.2997 39.4109 54.392 39.1678C49.5011 39.0462 44.8387 41.21 41.2733 44.6867C39.0336 46.8506 37.2738 49.4034 35.5139 52.1264L35.2854 52.0292C36.1082 48.7956 37.6166 45.6593 39.6964 43.1064C43.5588 38.3411 48.7011 36.6392 54.4605 37.1255C60.8141 37.6361 66.6878 40.6022 71.9444 44.2491C73.6814 45.4648 75.3269 46.7776 76.9039 48.2364L76.7439 48.4066Z" fill="#E48673"/>
<path id="Vector_32" d="M34.8054 56.7704C37.2966 53.7313 40.5191 52.6616 44.153 52.3212C46.4385 52.0294 49.5239 51.6891 51.0551 49.6711C51.1694 49.5495 51.2837 49.3064 51.3523 49.1362C51.398 49.0633 51.4665 48.8931 51.5122 48.8202C53.7292 44.2737 59.9228 48.7229 62.5968 50.6679C68.2876 54.9226 73.11 60.3444 78.3894 65.1097C80.9949 67.4194 83.646 69.7534 86.7085 71.3337C88.9026 72.4521 91.348 73.2301 93.7706 72.9384C94.5249 72.8411 95.2562 72.6709 95.919 72.2819C97.2674 71.5039 97.9531 69.9479 98.3645 68.4405C99.5301 63.2619 98.8673 57.6943 98.0902 52.4428C97.2446 47.0453 95.759 41.6722 94.7305 36.2991C93.9992 32.7008 93.4278 28.9324 93.085 25.2855C92.6965 21.7601 92.2165 18.2105 90.6624 15.0984C86 5.83529 75.144 5.03297 66.3221 5.10591C63.1682 5.22747 61.0198 3.57421 60.5627 0.219054L60.8141 0.170425C61.4083 2.77189 63.1224 4.3279 65.6593 4.15771C70.2531 3.79302 74.8241 3.5499 79.4179 4.49809C84.7887 5.51923 89.9996 8.70419 92.6965 13.9071C95.3705 18.8912 95.4619 25.0423 96.2618 30.3911C96.5361 32.166 96.856 33.9894 97.1989 35.7642C98.8673 44.8572 101.29 53.9258 100.924 63.2862C100.787 67.4923 99.9186 73.3274 95.3705 74.543C92.1708 75.3696 88.8569 74.4214 86 72.8897C82.8232 71.1635 80.1264 68.7323 77.4752 66.2767C74.9612 63.894 72.3101 61.1953 69.8646 58.7154C66.8706 55.7493 57.2031 45.8054 53.1121 48.0908C52.7235 48.3339 52.3807 48.7472 52.175 49.2092L52.1065 49.355L52.015 49.5252C51.6951 50.206 51.1694 50.7409 50.5981 51.1542C46.3699 53.9258 41.3419 51.8592 36.9309 55.1901C36.2224 55.7007 35.5825 56.3085 34.9883 56.9649L34.8054 56.7704Z" fill="#E48673"/>
<path id="Vector_33" d="M79.2122 26.282C81.3376 30.2207 82.7546 34.4268 84.0117 38.7301C85.2001 43.0578 86.1829 47.3855 86.4571 51.9076C84.3316 47.969 82.9146 43.7629 81.6576 39.4595C80.4692 35.1562 79.4864 30.8042 79.2122 26.282Z" fill="#E48673"/>
<path id="Vector_34" d="M29.7544 42.2555C28.1317 41.5747 26.8518 40.2132 25.9376 38.6329C24.0407 35.4236 24.0864 31.1203 25.6862 27.7894C26.4404 26.1362 27.4918 24.6774 28.8173 23.559C28.7031 23.9966 28.5888 24.4343 28.4745 24.8476C28.1546 26.0632 27.7889 27.2788 27.5146 28.5188C26.3033 33.5272 27.0347 37.8549 29.7544 42.2555Z" fill="#E48673"/>
<path id="Vector_35" d="M81.4748 122.804C74.047 127.715 65.9792 131.775 57.3402 133.526C44.2672 136.054 30.2116 133.137 19.2413 125.065C3.54009 113.516 -2.47071 94.455 0.911795 74.8347C2.42021 65.5958 5.36847 56.8676 7.35683 47.7746C8.91096 40.9914 10.5336 34.1838 12.842 27.6194C13.5505 25.4799 14.5104 23.2431 15.2646 21.1522C16.9787 16.5571 18.6699 11.6703 21.961 7.99903C24.9778 4.6925 29.6631 3.96312 33.7769 4.32781C35.9253 4.47369 38.0736 4.83838 40.2219 4.42506C42.3246 3.96312 44.0158 2.13967 44.8158 0.0244598C44.153 2.26123 42.5074 4.23056 40.3362 4.887C39.262 5.20307 38.1193 5.22738 37.0223 5.25169C34.8511 5.25169 32.6799 4.98425 30.5315 5.25169C27.949 5.59207 25.3207 6.4187 23.4009 8.33941C19.5613 12.3996 18.1214 18.1861 16.2245 23.4376C13.9847 29.3213 12.3392 35.4238 10.9679 41.5749C9.91656 46.0727 9.02523 50.6192 7.90535 55.1171C6.28266 61.8031 4.34 68.489 3.26583 75.2723C0.157586 94.0417 5.61987 111.887 20.4297 123.168C30.9201 131.119 44.4044 134.231 57.1116 132.237C65.705 130.875 73.8641 127.18 81.4748 122.804Z" fill="#E48673"/>
<path id="Vector_36" d="M18.7728 67.1036L17.4407 69.3139L77.1781 110.056L78.5103 107.846L18.7728 67.1036Z" fill="#E48673"/>
</g>
<g id="Group_6">
<path id="Vector_37" d="M122.933 121.953C122.453 122.317 121.996 122.803 121.539 123.387L121.448 123.509C121.333 123.679 121.288 123.825 121.288 123.995C121.288 124.335 121.425 124.554 121.699 124.651L126.91 126.402C126.361 127.107 125.676 127.642 124.83 128.031C123.985 128.42 123.002 128.614 121.859 128.614C120.122 128.614 118.659 127.958 117.425 126.669C116.191 125.356 115.597 123.8 115.597 121.953C115.597 119.959 116.237 118.306 117.54 116.993C118.774 115.704 120.282 115.072 122.065 115.072L122.248 114.659H121.333C119.551 114.659 117.974 115.315 116.58 116.604C115.003 118.087 114.226 119.959 114.226 122.293C114.226 124.651 114.888 126.572 116.214 128.055C117.608 129.635 119.505 130.413 121.882 130.413C123.573 130.413 125.013 130.049 126.224 129.344C127.298 128.711 128.167 127.836 128.83 126.694C128.99 126.426 129.081 126.11 129.081 125.794C129.081 125.624 129.058 125.502 128.99 125.381C128.921 125.259 128.83 125.186 128.715 125.162L123.619 123.46C123.779 123.314 123.962 123.217 124.167 123.12C124.373 123.022 124.579 122.998 124.807 122.998H129.698V121.223H124.784C124.19 121.199 123.573 121.442 122.933 121.953Z" fill="#6D6A6A"/>
<path id="Vector_38" d="M124.099 132.091C123.756 132.091 123.482 132.213 123.253 132.456C123.025 132.699 122.91 133.015 122.91 133.355C122.91 133.72 123.025 134.012 123.276 134.255C123.505 134.498 123.802 134.619 124.122 134.619C124.465 134.619 124.739 134.498 124.967 134.255C125.196 134.012 125.31 133.72 125.31 133.355C125.31 132.991 125.196 132.699 124.967 132.456C124.716 132.213 124.419 132.091 124.099 132.091Z" fill="#6D6A6A"/>
<path id="Vector_39" d="M121.151 132.091C120.808 132.091 120.534 132.213 120.305 132.456C120.076 132.699 119.962 133.015 119.962 133.355C119.962 133.72 120.076 134.012 120.328 134.255C120.556 134.498 120.853 134.619 121.173 134.619C121.516 134.619 121.791 134.498 122.019 134.255C122.248 134.012 122.362 133.72 122.362 133.355C122.362 132.991 122.248 132.699 122.019 132.456C121.768 132.213 121.493 132.091 121.151 132.091Z" fill="#6D6A6A"/>
<path id="Vector_40" d="M143.708 109.821C144.051 109.821 144.325 109.699 144.554 109.456C144.782 109.213 144.897 108.921 144.897 108.556C144.897 108.192 144.782 107.9 144.554 107.657C144.325 107.414 144.028 107.292 143.708 107.292C143.365 107.292 143.091 107.414 142.863 107.657C142.634 107.9 142.52 108.216 142.52 108.556C142.52 108.921 142.634 109.213 142.885 109.456C143.114 109.699 143.388 109.821 143.708 109.821Z" fill="#6D6A6A"/>
<path id="Vector_41" d="M157.969 124.749C157.627 124.749 157.352 124.87 157.124 125.113C156.895 125.356 156.781 125.672 156.781 126.013C156.781 126.377 156.895 126.669 157.147 126.912C157.375 127.155 157.672 127.277 157.992 127.277C158.335 127.277 158.609 127.155 158.838 126.912C159.066 126.669 159.181 126.377 159.181 126.013C159.181 125.648 159.066 125.356 158.838 125.113C158.587 124.894 158.312 124.749 157.969 124.749Z" fill="#6D6A6A"/>
<path id="Vector_42" d="M155.044 124.749C154.701 124.749 154.427 124.87 154.199 125.113C153.97 125.356 153.856 125.672 153.856 126.013C153.856 126.377 153.97 126.669 154.221 126.912C154.45 127.155 154.747 127.277 155.067 127.277C155.41 127.277 155.684 127.155 155.913 126.912C156.141 126.669 156.255 126.377 156.255 126.013C156.255 125.648 156.141 125.356 155.913 125.113C155.661 124.894 155.364 124.749 155.044 124.749Z" fill="#6D6A6A"/>
<path id="Vector_43" d="M164.506 120.445C164.003 119.935 163.775 119.375 163.775 118.695V97.9316L162.106 99.7064V119.132C162.106 119.813 161.946 120.348 161.626 120.688C161.306 121.029 160.872 121.199 160.278 121.199H159.409H158.792C158.244 121.199 157.741 120.956 157.352 120.469C156.941 119.983 156.735 119.4 156.735 118.719V111.571L155.067 113.346V119.132C155.067 119.862 154.953 120.397 154.724 120.737C154.496 121.053 154.107 121.223 153.536 121.223H152.599H149.582C150.382 120.178 150.793 118.865 150.793 117.284C150.793 115.656 150.359 114.318 149.49 113.224C148.622 112.13 147.502 111.595 146.131 111.595C144.759 111.595 143.64 112.155 142.771 113.249C141.903 114.343 141.468 115.704 141.468 117.309C141.468 118.865 141.857 120.178 142.657 121.247H140.828V121.223L129.744 121.247V123.047L140.828 123.022V123.047H152.621H153.559C154.198 123.047 154.747 122.925 155.204 122.658C155.661 122.39 155.935 122.05 156.073 121.588C156.324 122.074 156.667 122.439 157.101 122.682C157.535 122.925 158.107 123.047 158.815 123.047H159.432H160.301C160.986 123.047 161.558 122.925 162.06 122.682C162.563 122.439 162.952 122.074 163.249 121.588C163.546 122.074 163.912 122.414 164.369 122.682C164.826 122.925 165.42 123.047 166.129 123.047H167.02V121.272H166.129C165.534 121.199 165.009 120.956 164.506 120.445ZM148.302 120.032C147.731 120.81 146.999 121.199 146.108 121.199C145.217 121.199 144.462 120.81 143.914 120.032C143.388 119.302 143.114 118.379 143.114 117.284C143.114 116.19 143.388 115.267 143.937 114.489C144.485 113.735 145.217 113.346 146.108 113.346C146.999 113.346 147.753 113.735 148.302 114.513C148.828 115.242 149.102 116.166 149.102 117.26C149.125 118.379 148.85 119.302 148.302 120.032Z" fill="#6D6A6A"/>
<path id="Vector_44" d="M169.694 119.132C169.694 119.813 169.534 120.348 169.214 120.688C168.894 121.029 168.46 121.199 167.866 121.199H166.997V122.974H167.866C168.963 122.974 169.808 122.658 170.402 122.05C171.042 121.393 171.339 120.421 171.339 119.108V97.9316L169.671 99.7064V119.132H169.694Z" fill="#6D6A6A"/>
<path id="Vector_45" d="M175.728 125.429C175.728 127.155 175.591 128.711 175.316 130.073C175.134 131.021 174.882 131.872 174.539 132.601C174.311 133.112 174.174 133.355 174.128 133.355H174.334C174.791 132.991 175.225 132.504 175.591 131.921C176.116 131.07 176.528 130 176.825 128.711C177.19 127.131 177.373 125.21 177.373 122.974V97.9316L175.705 99.7064V125.429H175.728Z" fill="#6D6A6A"/>
<path id="Vector_46" d="M200.297 111.571H194.469C193.463 111.571 192.64 111.936 192.046 112.665C191.497 113.346 191.2 114.148 191.2 115.121V126.353C191.2 127.496 191.04 128.687 190.698 129.903C190.469 130.754 190.149 131.58 189.76 132.407C189.463 133.039 189.303 133.355 189.281 133.355H189.486C190.263 132.529 190.766 131.921 191.018 131.556C191.589 130.656 192.023 129.514 192.32 128.104C192.686 126.329 192.869 124.043 192.869 121.199V115.291C192.869 114.002 193.486 113.346 194.697 113.346H196.823C196.023 114.416 195.634 115.728 195.634 117.285C195.634 118.913 196.114 120.275 197.051 121.32C198.034 122.439 199.359 122.974 201.005 122.974H204.982V117.406C204.982 115.656 204.57 114.245 203.77 113.2C202.902 112.106 201.736 111.571 200.297 111.571ZM203.29 121.199H200.982C200.045 121.199 199.177 120.81 198.422 120.032C197.668 119.254 197.28 118.33 197.28 117.285C197.28 116.19 197.554 115.267 198.102 114.489C198.651 113.735 199.382 113.346 200.274 113.346C201.165 113.346 201.896 113.783 202.468 114.659C202.993 115.461 203.268 116.385 203.268 117.43V121.199H203.29Z" fill="#6D6A6A"/>
<path id="Vector_47" d="M209.667 126.353C209.667 127.496 209.507 128.687 209.164 129.903C208.936 130.754 208.616 131.58 208.227 132.407C207.93 133.039 207.77 133.355 207.747 133.355H207.953C208.73 132.529 209.233 131.921 209.484 131.556C210.055 130.656 210.49 129.514 210.787 128.104C211.152 126.329 211.335 124.043 211.335 121.199V111.571L209.667 113.346V126.353Z" fill="#6D6A6A"/>
<path id="Vector_48" d="M240.064 119.132C240.064 119.813 239.904 120.348 239.584 120.688C239.264 121.029 238.83 121.199 238.236 121.199H237.367V121.175L226.282 121.199V121.223H223.448V117.284C223.448 115.631 223.014 114.27 222.146 113.176C221.277 112.106 220.157 111.571 218.786 111.571C217.415 111.571 216.295 112.13 215.426 113.224C214.558 114.318 214.124 115.68 214.124 117.284C214.124 118.938 214.535 120.275 215.335 121.32C216.181 122.439 217.346 122.974 218.786 122.974H221.78V126.353C221.78 127.496 221.62 128.687 221.277 129.903C221.049 130.754 220.729 131.58 220.34 132.407C220.043 133.039 219.883 133.355 219.86 133.355H220.066C220.934 132.431 221.437 131.872 221.552 131.702C222.146 130.9 222.58 129.903 222.877 128.711C223.266 127.228 223.448 125.308 223.448 122.949H230.168H237.39V122.974H238.258C239.355 122.974 240.201 122.658 240.795 122.05C241.435 121.393 241.732 120.421 241.732 119.108V97.9316L240.064 99.7064V119.132ZM221.78 121.199H218.786C217.895 121.199 217.141 120.81 216.592 120.032C216.066 119.302 215.792 118.379 215.792 117.284C215.792 116.19 216.066 115.267 216.615 114.489C217.163 113.735 217.895 113.346 218.786 113.346C219.677 113.346 220.409 113.759 220.98 114.586C221.506 115.339 221.78 116.239 221.78 117.284V121.199Z" fill="#6D6A6A"/>
<path id="Vector_49" d="M246.097 99.7064V125.429C246.097 127.155 245.96 128.711 245.686 130.073C245.503 131.021 245.252 131.872 244.909 132.601C244.68 133.112 244.543 133.355 244.498 133.355H244.703C245.16 132.991 245.595 132.504 245.96 131.921C246.486 131.07 246.897 130 247.194 128.711C247.56 127.131 247.743 125.21 247.743 122.974V97.9316L246.097 99.7064Z" fill="#6D6A6A"/>
</g>
</g>
</svg>
