<svg width="67" height="61" viewBox="0 0 67 61" fill="none" xmlns="http://www.w3.org/2000/svg">
<path fill-rule="evenodd" clip-rule="evenodd" d="M33.5 0.513672C15.3684 0.513672 0.5 15.2122 0.5 33.3439C0.5 43.4735 5.14061 52.5316 12.3983 58.5538C20.1135 60.1985 32.1028 61.4381 39.9127 55.8954C46.1911 51.4395 55.6529 48.7541 63.4138 47.1926C65.3926 42.9847 66.5 38.2921 66.5 33.3439C66.5 15.2122 51.6316 0.513672 33.5 0.513672Z" fill="#F6E6E4"/>
<mask id="mask0_36_644" style="mask-type:luminance" maskUnits="userSpaceOnUse" x="0" y="0" width="67" height="60">
<path fill-rule="evenodd" clip-rule="evenodd" d="M33.5 0.513672C15.3684 0.513672 0.5 15.2122 0.5 33.3439C0.5 43.4735 5.14061 52.5316 12.3983 58.5538C20.1135 60.1985 32.1028 61.4381 39.9127 55.8954C46.1911 51.4395 55.6529 48.7541 63.4138 47.1926C65.3926 42.9847 66.5 38.2921 66.5 33.3439C66.5 15.2122 51.6316 0.513672 33.5 0.513672Z" fill="white"/>
</mask>
<g mask="url(#mask0_36_644)">
</g>
<path d="M34.5841 34.8644C36.515 37.2416 35.7968 39.5534 34.1643 40.6907C34.1457 40.7 34.1457 40.7094 34.127 40.728C32.6065 42.2009 30.1811 42.1916 28.6793 40.6907C28.586 40.5975 28.502 40.495 28.4181 40.4017C27.1681 38.8822 27.905 36.5704 28.6793 35.2094C30.4237 32.1517 33.53 33.5687 34.5841 34.8644Z" stroke="url(#paint0_linear_36_644)" stroke-miterlimit="10" stroke-linecap="round" stroke-linejoin="round"/>
<path d="M27.0934 41.5391C27.4759 41.1569 27.9329 40.7468 28.4273 40.4019C28.5113 40.5044 28.5953 40.5976 28.6885 40.6908C30.1904 42.1917 32.6157 42.201 34.1363 40.7281C34.8825 41.7629 35.7594 43.879 33.2594 46.4332C29.696 50.0408 23.9871 52.1663 23.2595 46.7968C23.2595 46.7968 20.4983 48.3815 19.9293 45.8739C19.3603 43.3663 20.5449 41.9866 21.7949 43.0307C21.7949 43.0307 24.155 40.1688 26.002 42.8256" stroke="url(#paint1_linear_36_644)" stroke-miterlimit="10" stroke-linecap="round" stroke-linejoin="round"/>
<path d="M32.3266 43.823C32.3266 43.823 26.2539 47.9527 26.002 42.8255C26.002 42.8255 25.974 41.7256 26.6643 41.5111C27.5039 41.2315 28.0822 42.9561 28.0822 42.9561C28.0822 42.9561 29.2949 41.7349 29.9572 41.5391M21.7857 43.0306C21.7857 43.0306 21.5524 44.1306 21.6364 44.6713M23.2595 46.7967C23.2595 46.7967 23.2035 45.7154 23.5394 45.184M26.4031 44.4383C26.4031 44.4383 26.5151 45.184 26.0953 46.0044" stroke="url(#paint2_linear_36_644)" stroke-miterlimit="10" stroke-linecap="round" stroke-linejoin="round"/>
<path d="M19.0898 51.0569C19.0898 51.0569 14.6962 43.068 20.517 36.7197C26.3379 30.3713 31.7483 31.3781 31.7483 31.3781C31.7483 31.3781 26.7203 31.1264 26.002 26.7358C26.002 26.7358 27.4386 24.4332 30.5449 22.3264C32.5318 20.9841 34.3975 19.4739 36.1139 17.7959L35.265 13.4425C35.265 13.4425 33.6326 15.2417 31.2819 16.2858C30.6848 16.5468 30.0225 16.118 30.0039 15.4747L29.9852 14.5239L29.752 14.4213C29.5468 14.3281 29.4628 14.0858 29.5561 13.89C29.6214 13.7502 29.5561 13.5824 29.4069 13.5264L29.2669 13.4798C29.0337 13.4052 28.9311 13.1349 29.0337 12.9205L29.1084 12.529C29.1737 12.3985 29.1643 12.3425 29.0804 12.2213L28.8845 12.0163L28.0916 12.1561C27.9423 12.2213 27.7651 12.1095 27.7558 11.9417L27.5319 8.16626M33.0915 8.16626C33.0915 8.16626 35.1438 12.4078 38.39 14.1883C41.6362 15.9688 43.1474 17.4044 40.7687 21.4502C38.39 25.4959 45.209 26.5213 45.4515 29.6163M42.6903 29.7841C42.6903 29.7841 41.4124 31.9095 42.0467 35.6383C42.681 39.3671 48.3899 41.4925 45.4608 48.9874C45.1157 49.8637 44.8265 50.712 44.5747 51.5137" stroke="url(#paint3_linear_36_644)" stroke-miterlimit="10" stroke-linecap="round" stroke-linejoin="round"/>
<path d="M37.5785 13.6755C37.5785 13.6755 36.9815 17.3018 39.2762 19.2221C41.571 21.1332 35.3863 21.0586 41.0952 28.0315C41.0952 28.0315 42.4292 28.9264 43.0822 30.5764C44.7146 34.7154 45.4609 37.1671 45.4609 37.1671C44.8266 31.5552 50.4608 29.8493 47.765 27.556C45.0691 25.2628 45.1437 25.0205 46.4124 19.2221C47.681 13.4238 41.571 7.51367 41.571 7.51367M26.1607 41.9959L26.4125 39.9171C26.4685 39.4323 26.1233 39.0035 25.6476 38.9476L24.5935 38.8264C24.0991 38.7705 23.754 38.3137 23.8286 37.8289C23.9219 37.2603 23.4368 36.7569 22.8584 36.8315L21.8883 36.9806" stroke="url(#paint4_linear_36_644)" stroke-miterlimit="10" stroke-linecap="round" stroke-linejoin="round"/>
<defs>
<linearGradient id="paint0_linear_36_644" x1="31.7451" y1="33.3806" x2="31.7451" y2="41.8246" gradientUnits="userSpaceOnUse">
<stop stop-color="#FAA285"/>
<stop offset="1" stop-color="#F06E65"/>
</linearGradient>
<linearGradient id="paint1_linear_36_644" x1="27.3489" y1="40.4019" x2="27.3489" y2="50.0442" gradientUnits="userSpaceOnUse">
<stop stop-color="#FAA285"/>
<stop offset="1" stop-color="#F06E65"/>
</linearGradient>
<linearGradient id="paint2_linear_36_644" x1="26.9724" y1="41.4805" x2="26.9724" y2="46.7967" gradientUnits="userSpaceOnUse">
<stop stop-color="#FAA285"/>
<stop offset="1" stop-color="#F06E65"/>
</linearGradient>
<linearGradient id="paint3_linear_36_644" x1="27.8512" y1="8.67171" x2="56.9165" y2="66.9899" gradientUnits="userSpaceOnUse">
<stop stop-color="#FAA285"/>
<stop offset="1" stop-color="#F06E65"/>
</linearGradient>
<linearGradient id="paint4_linear_36_644" x1="35.1942" y1="7.51367" x2="35.1942" y2="41.9959" gradientUnits="userSpaceOnUse">
<stop stop-color="#FAA285"/>
<stop offset="1" stop-color="#F06E65"/>
</linearGradient>
</defs>
</svg>
