<svg width="25" height="25" viewBox="0 0 25 25" fill="none" xmlns="http://www.w3.org/2000/svg">
<path d="M2.8569 3.2948C3.02359 2.9688 3.35886 2.76367 3.725 2.76367H8.6C8.91308 2.76367 9.20711 2.91401 9.39041 3.16782L14.0354 9.59938L20.5856 3.04924C20.9663 2.66848 21.5837 2.66848 21.9644 3.04924C22.3452 3.43 22.3452 4.04734 21.9644 4.4281L15.1919 11.2007L22.0654 20.7178C22.2798 21.0147 22.3098 21.4066 22.1431 21.7326C21.9764 22.0586 21.6411 22.2637 21.275 22.2637H16.4C16.0869 22.2637 15.7929 22.1134 15.6096 21.8596L10.9646 15.428L4.41443 21.9781C4.03367 22.3589 3.41634 22.3589 3.03557 21.9781C2.65481 21.5974 2.65481 20.98 3.03557 20.5993L9.80811 13.8267L2.93459 4.30952C2.72022 4.0127 2.69021 3.6208 2.8569 3.2948Z" fill="#E48673"/>
</svg>
