<svg width="17" height="16" viewBox="0 0 17 16" fill="none" xmlns="http://www.w3.org/2000/svg">
<path d="M0.5 8L0.603598 6.71671L0.911708 5.46666L1.41635 4.28222L2.10446 3.19406L2.9582 2.23038L3.95548 1.41613L5.07046 0.772396L6.27426 0.315855L7.53571 0.0583283L8.82213 0.00648748L10.1002 0.161674L11.3368 0.51987L12.5 1.0718L13.5596 1.80316L14.4881 2.69502L15.2615 3.72427L15.8598 4.86427L16.2675 6.08547L16.4741 7.35627L16.4741 8.64373L16.2675 9.91452L15.8598 11.1357L15.2615 12.2757L14.4881 13.305L13.5596 14.1968L12.5 14.9282L11.3368 15.4801L10.1002 15.8383L8.82213 15.9935L7.53571 15.9417L6.27426 15.6841L5.07046 15.2276L3.95548 14.5839L2.95821 13.7696L2.10446 12.8059L1.41635 11.7178L0.911708 10.5333L0.603598 9.28329L0.5 8Z" fill="#E48673"/>
</svg>
