<svg width="67" height="61" viewBox="0 0 67 61" fill="none" xmlns="http://www.w3.org/2000/svg">
<path fill-rule="evenodd" clip-rule="evenodd" d="M33.5 0.513672C15.3684 0.513672 0.5 15.2122 0.5 33.3439C0.5 43.4735 5.14061 52.5316 12.3983 58.5538C20.1135 60.1985 32.1028 61.4381 39.9127 55.8954C46.1911 51.4395 55.6529 48.7541 63.4138 47.1926C65.3926 42.9847 66.5 38.2921 66.5 33.3439C66.5 15.2122 51.6316 0.513672 33.5 0.513672Z" fill="url(#paint0_linear_36_665)" fill-opacity="0.16"/>
<mask id="mask0_36_665" style="mask-type:luminance" maskUnits="userSpaceOnUse" x="0" y="0" width="67" height="60">
<path fill-rule="evenodd" clip-rule="evenodd" d="M33.5 0.513672C15.3684 0.513672 0.5 15.2122 0.5 33.3439C0.5 43.4735 5.14061 52.5316 12.3983 58.5538C20.1135 60.1985 32.1028 61.4381 39.9127 55.8954C46.1911 51.4395 55.6529 48.7541 63.4138 47.1926C65.3926 42.9847 66.5 38.2921 66.5 33.3439C66.5 15.2122 51.6316 0.513672 33.5 0.513672Z" fill="white"/>
</mask>
<g mask="url(#mask0_36_665)">
</g>
<path d="M48.5919 15.8525L48.1612 15.4218C46.6754 13.9396 44.6623 13.1072 42.5635 13.1072C40.4647 13.1072 38.4516 13.9396 36.9658 15.4218L22.7182 29.6695C22.4215 29.9666 22.2549 30.3692 22.2549 30.789C22.2549 31.2088 22.4215 31.6114 22.7182 31.9085L23.9334 33.1238L16.3214 40.7359C16.2375 40.8198 16.1735 40.9215 16.1341 41.0336C16.0948 41.1456 16.0811 41.265 16.0941 41.383L16.6778 46.6362C16.6977 46.8149 16.7778 46.9816 16.905 47.1087C17.0321 47.2359 17.1988 47.316 17.3775 47.3359L22.6308 47.9196C22.6597 47.9227 22.6888 47.9242 22.7178 47.9243C22.9278 47.9242 23.1291 47.8408 23.2775 47.6923L30.8896 40.0803L32.1049 41.2956C32.402 41.5921 32.8046 41.7587 33.2244 41.7587C33.6442 41.7587 34.0468 41.5921 34.3439 41.2956L48.5916 27.0479C50.0742 25.5623 50.9069 23.5492 50.907 21.4503C50.907 19.3514 50.0744 17.3382 48.5919 15.8525ZM22.4273 46.3038L18.1812 45.8325L17.7096 41.5866L25.0529 34.2432L26.8518 36.0423L23.3257 39.5685C23.2506 39.6416 23.1909 39.729 23.1498 39.8254C23.1088 39.9219 23.0873 40.0255 23.0867 40.1303C23.086 40.2351 23.1062 40.339 23.146 40.4359C23.1858 40.5329 23.2444 40.621 23.3185 40.6951C23.3927 40.7692 23.4807 40.8279 23.5777 40.8677C23.6747 40.9075 23.7785 40.9276 23.8834 40.927C23.9882 40.9263 24.0918 40.9048 24.1882 40.8638C24.2847 40.8228 24.372 40.763 24.4452 40.688L27.9713 37.1618L29.7705 38.9609L22.4273 46.3038ZM33.2256 40.1769L31.4495 38.4011L25.6126 32.5642L23.8376 30.7892L36.1432 18.4835L45.5304 27.8706L33.2256 40.1769ZM47.4724 25.9284L46.6495 26.7511L37.2627 17.3642L38.0853 16.5417C39.274 15.3559 40.8845 14.69 42.5635 14.69C44.2426 14.69 45.8531 15.3559 47.0418 16.5417L47.4724 16.9722C48.6583 18.1609 49.3243 19.7713 49.3243 21.4503C49.3243 23.1294 48.6583 24.7398 47.4724 25.9284Z" fill="url(#paint1_linear_36_665)"/>
<path d="M40.8128 26.7509L37.262 23.2C36.9646 22.9042 36.5622 22.7381 36.1427 22.7383C35.7232 22.7384 35.3209 22.9047 35.0238 23.2008L29.1388 29.0857C28.8422 29.3828 28.6755 29.7854 28.6755 30.2052C28.6755 30.625 28.8422 31.0276 29.1388 31.3246L32.689 34.8748C32.9861 35.1714 33.3887 35.3379 33.8084 35.3379C34.2282 35.3379 34.6308 35.1714 34.9279 34.8748L40.8136 28.9891C41.1093 28.6916 41.2752 28.2892 41.275 27.8698C41.2749 27.4505 41.1087 27.0482 40.8128 26.7509ZM36.1441 31.421L32.5935 27.8704L33.8087 26.6551L37.3592 30.2055L36.1441 31.421ZM33.8096 33.7564L30.2583 30.2049L31.4733 28.9899L35.0244 32.5403L33.8096 33.7564ZM38.4786 29.0862L34.9283 25.5359L36.1437 24.3206L39.6937 27.8707L38.4786 29.0862Z" fill="#E68572"/>
<defs>
<linearGradient id="paint0_linear_36_665" x1="33.5" y1="0.513672" x2="33.5" y2="59.9469" gradientUnits="userSpaceOnUse">
<stop stop-color="#FFC5BA"/>
<stop offset="1" stop-color="#F07066"/>
</linearGradient>
<linearGradient id="paint1_linear_36_665" x1="51.5" y1="-3.48633" x2="23" y2="49.0137" gradientUnits="userSpaceOnUse">
<stop stop-color="#F9A084"/>
<stop offset="1" stop-color="#EF6E65"/>
</linearGradient>
</defs>
</svg>
