<svg width="25" height="25" viewBox="0 0 25 25" fill="none" xmlns="http://www.w3.org/2000/svg">
<path fill-rule="evenodd" clip-rule="evenodd" d="M7.19662 3.78541C8.85561 3.44723 10.6413 3.26367 12.4999 3.26367C14.3585 3.26367 16.1442 3.44723 17.8031 3.78541L17.9304 3.81133C19.825 4.19696 21.0874 4.45391 22.1753 5.85259C23.2515 7.23625 23.2509 8.84087 23.2499 11.3261V13.7013C23.2509 16.1865 23.2515 17.7911 22.1753 19.1748C21.0874 20.5735 19.825 20.8304 17.9304 21.216L17.8031 21.242C16.1442 21.5801 14.3585 21.7637 12.4999 21.7637C10.6413 21.7637 8.85561 21.5801 7.19662 21.242L7.06934 21.216C5.17471 20.8304 3.91231 20.5735 2.82446 19.1748C1.74828 17.7911 1.74888 16.1865 1.74981 13.7013V11.3261C1.74888 8.84087 1.74828 7.23625 2.82446 5.85259C3.91231 4.45391 5.17471 4.19696 7.06934 3.81133L7.19662 3.78541ZM11.7944 8.76591C12.3129 8.98353 12.9428 9.3353 13.7129 9.7654C13.8143 9.82201 13.9162 9.87825 14.0182 9.93455C14.5216 10.2125 15.0279 10.492 15.4948 10.8277C15.9144 11.1294 16.3125 11.5033 16.4443 12.0486C16.5183 12.3547 16.5183 12.6727 16.4443 12.9788C16.3125 13.5241 15.9144 13.898 15.4948 14.1997C15.0279 14.5354 14.5215 14.815 14.0181 15.0929C13.9161 15.1492 13.8143 15.2054 13.7129 15.262C12.9428 15.6921 12.313 16.0438 11.7944 16.2615C10.9514 16.6152 10.0575 16.6439 9.32276 16.0419C8.86292 15.6651 8.70037 15.1256 8.62905 14.582C8.4567 13.2681 8.45662 11.7599 8.62905 10.4454C8.70037 9.90173 8.86292 9.36225 9.32276 8.98548C10.0575 8.3835 10.9514 8.41212 11.7944 8.76591Z" fill="#E48673"/>
</svg>
